Coordinates
datacolumns 11
datarows 72
range 0 0.71
inDegrees=yes
Units are S.I. units (second, meters, Newtons, ...)
If the header above contains a line with 'inDegrees', this indicates whether rotational values are in degrees (yes) or radians (no).
endheader
time	pelvis_tilt	pelvis_tx	pelvis_ty	hip_flexion_l	hip_flexion_r	knee_angle_l	knee_angle_r	ankle_angle_l	ankle_angle_r	lumbar
0	13.03108876	-0.06580969	0.73091104	61.3271335	61.3271335	-73.35713744	-73.35713744	-2.29198774	-2.29198774	-39.1368667
0.01	12.85508825	-0.06528873	0.73105108	61.43924194	61.43924194	-73.34547136	-73.34547136	-2.28424448	-2.28424448	-39.48503486
0.02	12.66961704	-0.06474252	0.73118454	61.55800655	61.55800655	-73.32508739	-73.32508739	-2.27394145	-2.27394145	-39.83727165
0.03	12.47275897	-0.06414497	0.73130543	61.68310056	61.68310056	-73.29135693	-73.29135693	-2.26152507	-2.26152507	-40.19513895
0.04	12.26322578	-0.06351474	0.73141539	61.81556015	61.81556015	-73.24259753	-73.24259753	-2.24718152	-2.24718152	-40.55807241
0.05	12.03467173	-0.06283943	0.73150396	61.9584113	61.9584113	-73.17437087	-73.17437087	-2.22984215	-2.22984215	-40.91845483
0.06	11.52096875	-0.06208504	0.73097612	62.42207972	62.42207972	-73.08456291	-73.08456291	-2.14560311	-2.14560311	-40.95463736
0.07	11.29768913	-0.0613691	0.73106555	62.56521869	62.56521869	-73.03222708	-73.03222708	-2.13500653	-2.13500653	-41.36238242
0.08	11.03805477	-0.0606179	0.73113567	62.7268449	62.7268449	-72.94630209	-72.94630209	-2.11913714	-2.11913714	-41.75137523
0.09	10.38696752	-0.05978286	0.73036499	63.33982409	63.33982409	-72.85094585	-72.85094585	-2.05664356	-2.05664356	-41.69243414
0.1	10.13760632	-0.05897036	0.73048989	63.5000171	63.5000171	-72.80210992	-72.80210992	-2.04434684	-2.04434684	-42.13802129
0.11	9.5269011	-0.05803804	0.72987276	64.0569891	64.0569891	-72.72248558	-72.72248558	-1.95566513	-1.95566513	-42.16887156
0.12	9.26095042	-0.05710465	0.73006809	64.22288553	64.22288553	-72.67731774	-72.67731774	-1.941535	-1.941535	-42.63799442
0.13	8.95294741	-0.05609438	0.7302608	64.41187649	64.41187649	-72.60382098	-72.60382098	-1.91682994	-1.91682994	-43.07943268
0.14	8.17828253	-0.05495453	0.72938266	65.15259558	65.15259558	-72.55112137	-72.55112137	-1.72211437	-1.72211437	-42.97404306
0.15	7.88826629	-0.05381297	0.72967789	65.32502994	65.32502994	-72.50602815	-72.50602815	-1.70643465	-1.70643465	-43.4767296
0.16	7.23479014	-0.05255757	0.72921428	65.89092928	65.89092928	-72.42495062	-72.42495062	-1.53502464	-1.53502464	-43.56059067
0.17	6.92154941	-0.05128858	0.72954428	66.07044694	66.07044694	-72.36982857	-72.36982857	-1.5163921	-1.5163921	-44.07856841
0.18	6.22020046	-0.04994194	0.72906826	66.6682861	66.6682861	-72.26595895	-72.26595895	-1.32328999	-1.32328999	-44.14975864
0.19	5.66053732	-0.0485537	0.72891331	67.10657347	67.10657347	-72.18591873	-72.18591873	-1.19012945	-1.19012945	-44.40933441
0.2	5.08716504	-0.04710399	0.72877531	67.54631943	67.54631943	-72.09258061	-72.09258061	-1.06245644	-1.06245644	-44.66838657
0.21	4.46999646	-0.0456144	0.72854126	68.03457547	68.03457547	-72.0072777	-72.0072777	-0.92045242	-0.92045242	-44.89400439
0.22	3.83893421	-0.04408322	0.72830835	68.53105941	68.53105941	-71.91769164	-71.91769164	-0.78110809	-0.78110809	-45.12219714
0.23	3.16147116	-0.04248177	0.7279963	69.0762952	69.0762952	-71.83284416	-71.83284416	-0.62724848	-0.62724848	-45.30690923
0.24	2.45688995	-0.04080139	0.72765286	69.64848337	69.64848337	-71.75435091	-71.75435091	-0.46726382	-0.46726382	-45.47232594
0.25	1.73136119	-0.03903285	0.72730069	70.24074335	70.24074335	-71.68344892	-71.68344892	-0.30221093	-0.30221093	-45.62347704
0.26	0.9828364	-0.03717343	0.72694041	70.85429472	70.85429472	-71.62029934	-71.62029934	-0.12820756	-0.12820756	-45.75640328
0.27	0.21539224	-0.03520704	0.72658783	71.4822123	71.4822123	-71.56088141	-71.56088141	0.04823647	0.04823647	-45.87776835
0.28	-0.57341718	-0.03313805	0.72623803	72.12767125	72.12767125	-71.50473221	-71.50473221	0.23444608	0.23444608	-45.98500682
0.29	-1.38398678	-0.03096601	0.72590289	72.78587736	72.78587736	-71.4478875	-71.4478875	0.42249003	0.42249003	-46.07656008
0.3	-2.22366394	-0.02872393	0.72553804	73.47405322	73.47405322	-71.39286094	-71.39286094	0.62610939	0.62610939	-46.14376814
0.31	-3.07835472	-0.02634765	0.72525247	74.15680537	74.15680537	-71.33029633	-71.33029633	0.82718649	0.82718649	-46.21438384
0.32	-3.97016729	-0.02388902	0.72491666	74.87571856	74.87571856	-71.27255308	-71.27255308	1.05031178	1.05031178	-46.24567117
0.33	-4.8832854	-0.0213479	0.72460327	75.60748783	75.60748783	-71.21176667	-71.21176667	1.2832879	1.2832879	-46.265731
0.34	-5.82802929	-0.01871897	0.72431098	76.35527936	76.35527936	-71.13676156	-71.13676156	1.52573477	1.52573477	-46.25878055
0.35	-6.79799189	-0.01598709	0.72405191	77.11128047	77.11128047	-71.04932201	-71.04932201	1.77205682	1.77205682	-46.23072572
0.36	-7.79799018	-0.01318945	0.72383887	77.88024967	77.88024967	-70.94244244	-70.94244244	2.02273453	2.02273453	-46.17807824
0.37	-8.82420498	-0.0103133	0.7236868	78.65594454	78.65594454	-70.81833938	-70.81833938	2.27325271	2.27325271	-46.1020252
0.38	-9.87000025	-0.00734489	0.7236126	79.43102412	79.43102412	-70.67065149	-70.67065149	2.51225687	2.51225687	-46.00568086
0.39	-10.93232994	-0.00429487	0.72363733	80.19905888	80.19905888	-70.5004147	-70.5004147	2.73232487	2.73232487	-45.89196885
0.4	-12.00991044	-0.00115565	0.72377122	80.95602729	80.95602729	-70.30424963	-70.30424963	2.93568647	2.93568647	-45.75653383
0.41	-13.08873414	0.00206931	0.72404006	81.69004916	81.69004916	-70.08575612	-70.08575612	3.11553025	3.11553025	-45.61522633
0.42	-14.16193075	0.00538663	0.72444936	82.39196098	82.39196098	-69.84471501	-69.84471501	3.27570775	3.27570775	-45.4683793
0.43	-15.24101134	0.00878599	0.72498204	83.07366175	83.07366175	-69.58191038	-69.58191038	3.41476708	3.41476708	-45.30570843
0.44	-16.28277886	0.01228457	0.7256368	83.70480935	83.70480935	-69.31502501	-69.31502501	3.54299165	3.54299165	-45.14574971
0.45	-17.32205975	0.01586723	0.72641274	84.30742442	84.30742442	-69.03623257	-69.03623257	3.66926562	3.66926562	-44.97034852
0.46	-18.33809667	0.01952179	0.72727825	84.87359682	84.87359682	-68.75397989	-68.75397989	3.80015724	3.80015724	-44.77942277
0.47	-19.32571195	0.02324832	0.7282326	85.39873928	85.39873928	-68.4714414	-68.4714414	3.94031012	3.94031012	-44.57431785
0.48	-20.26744857	0.02702557	0.72928056	85.87043376	85.87043376	-68.19659868	-68.19659868	4.09653213	4.09653213	-44.36571176
0.49	-21.15871085	0.03084754	0.7304318	86.28563528	86.28563528	-67.92657415	-67.92657415	4.27421747	4.27421747	-44.16048939
0.5	-21.98525179	0.03468449	0.73178399	86.60080163	86.60080163	-67.61010181	-67.61010181	4.45584958	4.45584958	-43.97214929
0.51	-22.74431154	0.03855099	0.73300551	86.91823689	86.91823689	-67.42529731	-67.42529731	4.67775049	4.67775049	-43.76621182
0.52	-23.42813121	0.04242624	0.7343953	87.13853308	87.13853308	-67.2115915	-67.2115915	4.91648635	4.91648635	-43.58049299
0.53	-24.04635894	0.04627941	0.73586842	87.29996296	87.29996296	-67.01781115	-67.01781115	5.19430371	5.19430371	-43.39497598
0.54	-24.5819509	0.05014553	0.73734962	87.40015768	87.40015768	-66.85862735	-66.85862735	5.49005885	5.49005885	-43.21865482
0.55	-24.97215897	0.05406232	0.73917402	87.32759544	87.32759544	-66.6609906	-66.6609906	5.58118972	5.58118972	-43.14746402
0.56	-25.46549383	0.05785566	0.74045265	87.43291821	87.43291821	-66.57538134	-66.57538134	6.07674306	6.07674306	-42.82377292
0.57	-25.76304886	0.06172799	0.74217543	87.31862319	87.31862319	-66.4670121	-66.4670121	6.44214574	6.44214574	-42.6770765
0.58	-26.02314423	0.06556837	0.74395142	87.16646993	87.16646993	-66.33633294	-66.33633294	6.545411	6.545411	-42.50142607
0.59	-26.20868978	0.06942085	0.74560217	87.00077711	87.00077711	-66.31800227	-66.31800227	6.59204651	6.59204651	-42.3078974
0.6	-26.37671622	0.0732382	0.74751479	86.73618583	86.73618583	-66.18374443	-66.18374443	7.41155335	7.41155335	-42.11349985
0.61	-26.5082721	0.07701031	0.74918343	86.53257244	86.53257244	-66.17827433	-66.17827433	7.42968004	7.42968004	-41.83941812
0.62	-26.57983447	0.08075839	0.75135605	86.14773649	86.14773649	-65.98713933	-65.98713933	8.01440261	8.01440261	-41.65048599
0.63	-26.69759366	0.08439621	0.7532439	85.87067858	85.87067858	-65.8600359	-65.8600359	8.15099369	8.15099369	-41.3192412
0.64	-26.77550582	0.08803345	0.75494787	85.62547828	85.62547828	-65.85826005	-65.85826005	8.17538903	8.17538903	-40.9381924
0.65	-26.78917799	0.09165286	0.75729655	85.16135884	85.16135884	-65.62288337	-65.62288337	8.88453669	8.88453669	-40.67831201
0.66	-26.88083884	0.09511283	0.75932623	84.84345671	84.84345671	-65.449181	-65.449181	9.01313349	9.01313349	-40.25418859
0.67	-26.89538781	0.09861794	0.76154287	84.435707	84.435707	-65.28249691	-65.28249691	9.39336565	9.39336565	-39.88446844
0.68	-26.97650644	0.10194117	0.76374083	84.08578185	84.08578185	-65.05014196	-65.05014196	9.48363968	9.48363968	-39.42210108
0.69	-27.01752118	0.10523643	0.76610166	83.67881177	83.67881177	-64.79473018	-64.79473018	9.62595698	9.62595698	-38.98391681
0.7	-27.02198673	0.10849807	0.76858066	83.22887708	83.22887708	-64.53097393	-64.53097393	9.79159252	9.79159252	-38.57064908
0.71	-27.00896091	0.11169943	0.77121534	82.73760834	82.73760834	-64.21831285	-64.21831285	9.96054871	9.96054871	-38.1663339
